<?xml version="1.0" encoding="utf-8"?>
<!-- Svg Vector Icons : http://www.onlinewebfonts.com/icon -->
<!DOCTYPE svg PUBLIC "-//W3C//DTD SVG 1.1//EN" "http://www.w3.org/Graphics/SVG/1.1/DTD/svg11.dtd">
<svg version="1.1" xmlns="http://www.w3.org/2000/svg" xmlns:xlink="http://www.w3.org/1999/xlink" x="0px" y="0px" viewBox="0 0 1000 1000" enable-background="new 0 0 1000 1000" xml:space="preserve">
<metadata> Svg Vector Icons : http://www.onlinewebfonts.com/icon </metadata>
<g><g transform="translate(0.000000,511.000000) scale(0.100000,-0.100000)"><path d="M4760.4,4971c-12.3-12.3-21.5-405.5-21.5-875.5v-857.1l70.7-15.4c39.9-12.3,153.6-15.4,251.9-9.2l184.3,9.2v875.5v875.5l-230.4,9.2C4886.3,4986.4,4772.7,4983.3,4760.4,4971z"/><path d="M1556.2,3573.2c-92.2-89.1-165.9-175.1-165.9-193.5c0-52.2,1176.6-1216.6,1228.8-1216.6c61.4,0,337.9,279.6,337.9,341c0,43-1164.3,1225.8-1210.4,1225.8C1734.4,3729.9,1648.3,3659.3,1556.2,3573.2z"/><path d="M7654.3,3127.8c-334.9-334.9-611.4-623.6-611.4-642.1c0-49.2,285.7-322.6,337.9-322.6c55.3,0,1228.8,1167.4,1228.8,1222.7c0,46.1-202.7,273.4-285.7,316.4C8271.8,3733,8188.8,3659.3,7654.3,3127.8z"/><path d="M4585.3,2756.1c-1112.1-187.4-2024.5-1084.4-2215-2175c-46.1-264.2-18.4-924.7,46.1-1167.4C2444-687.8,2533.1-909,2616-1077.9c261.1-531.5,660.5-937,1185.8-1198.1c433.2-215,685.1-273.4,1213.5-270.3c393.2,0,476.2,9.2,715.8,79.9c958.5,291.9,1634.4,998.4,1870.9,1950.8c92.2,365.6,89.1,930.9-3.1,1281.1c-264.2,998.4-1062.9,1754.2-2070.6,1963.1C5313.4,2774.5,4778.8,2789.9,4585.3,2756.1z M5531.5,2175.4c242.7-61.4,635.9-261.1,826.4-417.8c823.3-682,1016.9-1870.9,451.6-2777.2c-245.8-399.4-663.6-731.2-1124.4-897.1c-202.7-73.7-267.3-79.9-669.7-82.9c-420.9,0-460.8,6.1-709.7,95.2C3488.5-1612.5,2935.5-884.4,2874.1-21.1c-24.6,365.6,46.1,703.5,227.3,1078.3c116.7,242.7,181.2,331.8,405.5,553C4059.9,2160.1,4788,2362.8,5531.5,2175.4z"/><path d="M136.9,344.5c-55.3-55.3-46.1-408.6,12.3-466.9c39.9-43,162.8-49.2,857.1-49.2c694.3,0,817.2,6.2,857.1,49.2c58.4,58.3,67.6,411.7,12.3,466.9C1823.4,396.7,189.1,396.7,136.9,344.5z"/><path d="M8118.2,323c-15.4-33.8-30.7-135.2-30.7-230.4c0-273.4-27.7-264.2,894-264.2c491.5,0,823.3,12.3,860.2,30.7c49.2,27.7,58.4,67.6,58.4,239.6c0,122.9-15.4,224.3-36.9,245.8c-27.6,27.7-264.2,36.9-875.5,36.9C8191.9,381.3,8148.9,378.3,8118.2,323z"/><path d="M2001.6-2524.9c-334.8-334.9-611.3-623.6-611.3-642.1c0-49.1,285.7-322.6,337.9-322.6c55.3,0,1228.8,1167.4,1228.8,1222.7c0,46.1-202.8,273.4-285.7,316.5C2619.1-1919.7,2536.2-1993.4,2001.6-2524.9z"/><path d="M7208.9-2079.4c-92.2-89.1-165.9-175.1-165.9-193.5c0-52.2,1176.6-1216.6,1228.8-1216.6c61.4,0,337.9,279.6,337.9,341c0,43-1164.3,1225.8-1210.4,1225.8C7387-1922.8,7301-1993.4,7208.9-2079.4z"/><path d="M4754.2-3034.9c-9.2-21.5-12.3-420.8-9.2-884.8l9.2-844.8H5000h245.8v875.5v875.5l-239.6,9.2C4831-2998,4763.4-3007.2,4754.2-3034.9z"/></g></g>
</svg>